<?xml version="1.0" encoding="UTF-8" standalone="no"?>
<svg
   viewBox="0 0 186 214"
   xmlns="http://www.w3.org/2000/svg">
    <path
       style="fill:none;stroke:#000000;stroke-width:3.00298px;stroke-linecap:butt;stroke-linejoin:miter;stroke-opacity:1"
       d="m 58.554599,2.2656878 c 7.205797,2.9846716 6.002598,16.1355222 10.21487,22.6997122 6.54149,10.1941 14.376519,17.024783 23.834694,17.024783 9.458177,0 17.293207,-6.830683 23.834697,-17.024783 4.21228,-6.56419 3.00885,-19.7150406 10.21487,-22.6997122 10.19047,-4.2210115 28.37464,11.3498562 28.37464,11.3498562 l 28.37464,17.024784 -11.34985,34.049573 H 160.7033 c 0,0 -6.40472,-0.40519 -9.07988,2.269971 -2.67516,2.675161 -2.26997,9.079885 -2.26997,9.079885 V 166.8386 c 0,0 -1.19469,7.72256 -2.26997,11.34986 -1.28242,4.32622 -5.10744,11.34986 -5.10744,11.34986 l -7.37741,11.34985 c 0,0 -6.1187,6.94725 -10.21487,9.07989 -3.35569,1.74719 -9.07988,2.26997 -9.07988,2.26997 H 69.904455 c 0,0 -5.724186,-0.52323 -9.079885,-2.26997 -4.096163,-2.13264 -10.21487,-9.07989 -10.21487,-9.07989 l -7.377406,-11.34985 c 0,0 -3.825015,-7.02364 -5.107436,-11.34986 -1.074831,-3.6273 -2.269971,-11.34986 -2.269971,-11.34986 V 76.039757 c 0,0 0.40519,-6.404724 -2.269971,-9.079885 -2.675161,-2.675161 -9.079885,-2.269971 -9.079885,-2.269971 H 13.155175 L 1.8053191,30.640328 30.179959,13.615544 c 0,0 18.184172,-15.5708677 28.37464,-11.3498562 z"/>
    <path
       style="fill:none;stroke:#000000;stroke-width:3.00298px;stroke-linecap:butt;stroke-linejoin:miter;stroke-opacity:1"
       d="m 60.82457,209.96806 14.754813,-20.42974 h 34.049567 l 14.75481,20.42974"/>
    <path
       style="fill:none;stroke:#000000;stroke-width:3.00298px;stroke-linecap:butt;stroke-linejoin:miter;stroke-opacity:1"
       d="m 109.62895,189.53832 c 0,0 0.22359,-24.05852 7.9449,-31.7796 7.72108,-7.72108 31.7796,-7.9449 31.7796,-7.9449"/>
    <path
       style="fill:none;stroke:#000000;stroke-width:3.00298px;stroke-linecap:butt;stroke-linejoin:miter;stroke-opacity:1"
       d="m 75.579383,189.53832 c 0,0 -0.223592,-24.05852 -7.944899,-31.7796 -7.72108,-7.72108 -31.779597,-7.9449 -31.779597,-7.9449"/>
</svg>
