<?xml version="1.0" encoding="UTF-8" standalone="no"?>
<svg
   viewBox="0 0 186 207"
   xmlns="http://www.w3.org/2000/svg">
    <path
       style="fill:none;stroke:#000000;stroke-width:2.3926px;stroke-linecap:butt;stroke-linejoin:miter;stroke-opacity:1"
       d="m 119.72836,1.5017495 c 6.17956,-1.95860452 15.8251,6.7821848 15.8251,6.7821848 l 15.82509,11.3036407 20.26327,12.681877 c 0,0 8.42067,4.161367 11.38693,9.925411 1.37932,2.680229 0.90429,9.042913 0.90429,9.042913 0,0 -0.58146,5.102915 -2.71287,7.23433 -2.13142,2.131417 -7.23433,1.808585 -7.23433,1.808585 H 146.8571 c 0,0 -5.10292,-0.322832 -7.23433,1.808582 -2.13142,2.131415 -1.80859,7.234331 -1.80859,7.234331 0,0 3.70977,45.182646 3.61717,67.821846 -0.0814,19.62991 -3.61717,58.77894 -3.61717,58.77894 0,0 0.32284,5.10291 -1.80858,7.23433 -2.13141,2.13141 -7.23433,1.80858 -7.23433,1.80858 h -4.52145 -4.52146 c 0,0 -4.86726,0.0543 -7.23433,-1.80858 -2.43435,-1.91918 -0.15011,-10.94365 -1.80858,-16.27725 -1.91475,-6.1584 -7.23433,-18.08582 -7.23433,-18.08582 0,0 -2.73521,-9.04292 -10.8515,-9.04292 -8.116285,0 -10.851495,9.04292 -10.851495,9.04292 0,0 -5.325372,11.62159 -7.234331,18.08582 -1.546157,5.23558 0.62577,14.35807 -1.808582,16.27725 -2.367073,1.86618 -7.234331,1.80858 -7.234331,1.80858 h -4.521456 -4.521457 c 0,0 -5.102897,0.32283 -7.23433,-1.80858 -2.131433,-2.13142 -1.808583,-7.23433 -1.808583,-7.23433 0,0 -3.5369,-39.14903 -3.617165,-58.77894 -0.0926,-22.6392 3.617165,-67.821846 3.617165,-67.821846 0,0 0.322832,-5.102916 -1.808582,-7.234331 -2.131433,-2.131414 -7.234331,-1.808582 -7.234331,-1.808582 H 11.213403 c 0,0 -5.1028979,0.322832 -7.234327,-1.808585 -2.1314324,-2.131415 -2.7128737,-7.23433 -2.7128737,-7.23433 0,0 -0.44373573,-6.346859 0.9042913,-9.042913 C 3.855541,38.82475 11.213403,34.508386 11.213403,34.508386 L 33.820686,19.587575 49.645783,8.2839343 c 0,0 9.645533,-8.74078932 15.825098,-6.7821848 6.088684,1.9298481 2.592965,8.3844984 6.330039,13.5643695 4.35778,6.040123 14.404364,9.042913 20.7987,9.042913 6.394334,0 15.65301,-3.504581 20.7987,-9.042913 4.34756,-4.679255 0.24145,-11.6345214 6.33004,-13.5643695 z"/>
    <path
       style="fill:none;stroke:#000000;stroke-width:2.3926px;stroke-linecap:butt;stroke-linejoin:miter;stroke-opacity:1"
       d="M 92.59962,24.109032 V 159.75273"/>
    <path
       style="fill:none;stroke:#000000;stroke-width:2.3926px;stroke-linecap:butt;stroke-linejoin:miter;stroke-opacity:1"
       d="m 110.68545,189.59435 h 27.00042"/>
    <path
       style="fill:none;stroke:#000000;stroke-width:2.3926px;stroke-linecap:butt;stroke-linejoin:miter;stroke-opacity:1"
       d="m 47.385055,189.59435 h 27.00042"/>
    <path
       style="fill:none;stroke:#000000;stroke-width:2.3926px;stroke-linecap:butt;stroke-linejoin:miter;stroke-opacity:1"
       d="M 11.213403,34.508386 V 60.280691"/>
    <path
       style="fill:none;stroke:#000000;stroke-width:2.3926px;stroke-linecap:butt;stroke-linejoin:miter;stroke-opacity:1"
       d="M 173.98584,34.508386 V 60.280691"/>
</svg>
