<?xml version="1.0" encoding="UTF-8" standalone="no"?>
<svg
   viewBox="0 0 186 146"
   xmlns="http://www.w3.org/2000/svg">
    <path
       style="fill:none;stroke:#000000;stroke-width:2.05095px;stroke-linecap:butt;stroke-linejoin:miter;stroke-opacity:1"
       d="m 69.166525,1.5474025 c 4.921357,2.0384462 4.099606,11.0201045 6.976468,15.5032585 4.46765,6.962282 9.818753,11.627444 16.278416,11.627444 6.459673,0 11.810771,-4.665162 16.278421,-11.627444 2.87687,-4.483154 2.05497,-13.4648123 6.97646,-15.5032585 6.95981,-2.8828307 19.37909,7.7516293 19.37909,7.7516293 l 47.00691,44.6646862 c 0,0 2.08729,1.841512 2.12017,3.347098 0.0345,1.583327 -2.12017,3.655855 -2.12017,3.655855 l -9.11067,8.440465 c 0,0 -2.25701,2.990224 -4.28203,3.031292 -1.78687,0.03619 -3.92976,-2.367826 -3.92976,-2.367826 L 138.93118,46.923296 c 0,0 -4.37423,-3.018654 -6.20129,-1.191599 -1.82705,1.827065 -1.55033,6.201302 -1.55033,6.201302 v 62.013041 c 0,0 -0.81594,5.27429 -1.55033,7.75163 -0.87585,2.95468 -3.48823,7.75162 -3.48823,7.75162 l -5.03856,7.75163 c 0,0 -4.17892,4.74479 -6.97647,6.20131 -2.29184,1.19329 -6.20129,1.55033 -6.20129,1.55033 H 76.918156 c 0,0 -3.909456,-0.35735 -6.201303,-1.55033 -2.797564,-1.45652 -6.976468,-6.20131 -6.976468,-6.20131 l -5.038558,-7.75163 c 0,0 -2.612376,-4.79694 -3.488234,-7.75162 -0.734079,-2.47734 -1.550326,-7.75163 -1.550326,-7.75163 V 51.932999 c 0,0 0.276734,-4.374237 -1.550326,-6.201302 -1.827059,-1.827055 -6.201302,1.191599 -6.201302,1.191599 l -25.456462,22.48384 c 0,0 -2.257255,2.990196 -4.282244,3.031292 -1.786803,0.03628 -3.929754,-2.367826 -3.929754,-2.367826 L 2.8066014,60.966671 c 0,0 -1.7803034,-1.994713 -1.7811245,-3.655855 -7.51e-4,-1.519458 1.7811245,-3.347098 1.7811245,-3.347098 L 49.787453,9.2990318 c 0,0 12.419273,-10.63446 19.379072,-7.7516293 z"/>
    <path
       style="fill:none;stroke:#000000;stroke-width:2.05095px;stroke-linecap:butt;stroke-linejoin:miter;stroke-opacity:1"
       d="m 70.716853,143.40223 10.077116,-13.95294 h 23.254881 l 10.07712,13.95294"/>
    <path
       style="fill:none;stroke:#000000;stroke-width:2.05095px;stroke-linecap:butt;stroke-linejoin:miter;stroke-opacity:1"
       d="m 104.04885,129.44929 c 0,0 0.15271,-16.43128 5.42615,-21.70455 5.27328,-5.27328 21.70456,-5.42615 21.70456,-5.42615"/>
    <path
       style="fill:none;stroke:#000000;stroke-width:2.05095px;stroke-linecap:butt;stroke-linejoin:miter;stroke-opacity:1"
       d="m 80.793969,129.44929 c 0,0 -0.152707,-16.43128 -5.426139,-21.70455 -5.273279,-5.27328 -21.704563,-5.42615 -21.704563,-5.42615" />
</svg>
