<?xml version="1.0" encoding="utf-8"?>

<!DOCTYPE svg PUBLIC "-//W3C//DTD SVG 1.1//EN" "http://www.w3.org/Graphics/SVG/1.1/DTD/svg11.dtd">
<!-- https://www.svgrepo.com/svg/426536/baby-stroller -->

<svg xmlns="http://www.w3.org/2000/svg"  width="800px" height="800px" viewBox="0 0 63 48">
<title>Baby-stroller</title>

<g transform="translate(0.000000, 2.000000)" fill="none" stroke="#6B6C6E" stroke-width="2">
	<path d="M8,12.9L7,7H0"/>
	<path d="M52,31.2 c6.1-3.2,10-10.7,10-16.3C62-1.375,44.05-2.625,39,0v17h22.875H22l-4-4.1H8v0.4c0,5.5,4.6,15,10.7,18.3"/>
	<path d="M39,16.9L50.919-0.145"/>
	<path d="M39,17L59.9,7"/>
	<path d="M27.9,34.3 c2.5,0.5,4.3,0.6,7.1,0.6s5.5-0.3,8-0.8"/>
	<circle cx="22" cy="38" r="7"/>
	<circle cx="49" cy="38" r="7"/>
</g>
</svg>