<?xml version="1.0" encoding="utf-8"?>

<!DOCTYPE svg PUBLIC "-//W3C//DTD SVG 1.1//EN" "http://www.w3.org/Graphics/SVG/1.1/DTD/svg11.dtd">
<!-- https://www.svgrepo.com/svg/426458/train -->

<svg xmlns="http://www.w3.org/2000/svg" width="800px" height="800px" viewBox="0 0 65 61">
	<title>Train</title>

	<path fill="none" stroke="#6B6C6E" stroke-width="2" stroke-linejoin="round" d="M55,55.9 h7.7L58,42v-8c-0.3-1.1-1-5-1-5v-2h1c1.1,0,1-0.9,1-2v-1c0-1.1,0.1-2-1-2h-7c-1.1,0-1,0.9-1,2v1c0,1.1-0.1,2,1,2h1v5h-7v-3h-4v3h-5 v-3h-4v3h-5v-8h0.9c1.1,0,1-0.9,1-2v-3c0-1.1,0.1-2-1-2H4c-1.1,0-1,0.9-1,2v3c0,1.1-0.1,2,1,2h1v13.9H2c-1.1,0-1,0.9-1,2v9 c0,1.1-0.1,2,1,2h3"/>
	<path fill="none" stroke="#6B6C6E" stroke-width="2" d="M39.8,54.9h4"/>
	<path fill="none" stroke="#6B6C6E" stroke-width="2" d="M22.103,54.9H28"/>
	<rect x="9" y="25" fill="none" stroke="#6B6C6E" stroke-width="2" stroke-linejoin="round" width="5" height="11.9"/>
	<rect x="18" y="25" fill="none" stroke="#6B6C6E" stroke-width="2" stroke-linejoin="round" width="5" height="7"/>
	<path fill="none" stroke="#6B6C6E" stroke-width="2" stroke-linejoin="round" d="M21.9,46.9h37.8"/>
	<path fill="none" stroke="#6B6C6E" stroke-width="2" stroke-linejoin="round" d="M14,42 h44"/>
	<circle fill="none" stroke="#6B6C6E" stroke-width="2" stroke-linejoin="round" cx="14" cy="51" r="9"/>
	<circle fill="none" stroke="#6B6C6E" stroke-width="2" stroke-linejoin="round" cx="34" cy="54" r="6"/>
	<circle fill="none" stroke="#6B6C6E" stroke-width="2" stroke-linejoin="round" cx="50" cy="54" r="6"/>
</svg>